<svg class="marks" width="611" height="522" viewBox="0 0 611 522" version="1.1" xmlns="http://www.w3.org/2000/svg" xmlns:xlink="http://www.w3.org/1999/xlink"><g transform="translate(205,5)"><g class="mark-group role-frame root"><g transform="translate(0,0)"><path class="background" d="M0.5,0.5h400v480h-400Z" style="fill: none; stroke: #ddd;"></path><g><g class="mark-group role-axis"><g transform="translate(0.5,480.5)"><path class="background" d="M0,0h0v0h0Z" style="pointer-events: none; fill: none;"></path><g><g class="mark-rule role-axis-grid" style="pointer-events: none;"><line transform="translate(0,0)" x2="0" y2="-480" style="fill: none; stroke: #ddd; stroke-width: 1; opacity: 1;"></line><line transform="translate(31,0)" x2="0" y2="-480" style="fill: none; stroke: #ddd; stroke-width: 1; opacity: 1;"></line><line transform="translate(62,0)" x2="0" y2="-480" style="fill: none; stroke: #ddd; stroke-width: 1; opacity: 1;"></line><line transform="translate(92,0)" x2="0" y2="-480" style="fill: none; stroke: #ddd; stroke-width: 1; opacity: 1;"></line><line transform="translate(123,0)" x2="0" y2="-480" style="fill: none; stroke: #ddd; stroke-width: 1; opacity: 1;"></line><line transform="translate(154,0)" x2="0" y2="-480" style="fill: none; stroke: #ddd; stroke-width: 1; opacity: 1;"></line><line transform="translate(185,0)" x2="0" y2="-480" style="fill: none; stroke: #ddd; stroke-width: 1; opacity: 1;"></line><line transform="translate(215,0)" x2="0" y2="-480" style="fill: none; stroke: #ddd; stroke-width: 1; opacity: 1;"></line><line transform="translate(246,0)" x2="0" y2="-480" style="fill: none; stroke: #ddd; stroke-width: 1; opacity: 1;"></line><line transform="translate(277,0)" x2="0" y2="-480" style="fill: none; stroke: #ddd; stroke-width: 1; opacity: 1;"></line><line transform="translate(308,0)" x2="0" y2="-480" style="fill: none; stroke: #ddd; stroke-width: 1; opacity: 1;"></line><line transform="translate(338,0)" x2="0" y2="-480" style="fill: none; stroke: #ddd; stroke-width: 1; opacity: 1;"></line><line transform="translate(369,0)" x2="0" y2="-480" style="fill: none; stroke: #ddd; stroke-width: 1; opacity: 1;"></line><line transform="translate(400,0)" x2="0" y2="-480" style="fill: none; stroke: #ddd; stroke-width: 1; opacity: 1;"></line></g></g></g></g><g class="mark-rect role-mark layer_0_marks"><path d="M0,1h370.7219672805086v18h-370.7219672805086Z" style="fill: #4c78a8;"></path><path d="M0,21h326.68181795321885v18h-326.68181795321885Z" style="fill: #4c78a8;"></path><path d="M0,41h319.0222562247968v18h-319.0222562247968Z" style="fill: #4c78a8;"></path><path d="M0,61h286.30495063049153v18h-286.30495063049153Z" style="fill: #4c78a8;"></path><path d="M0,81h176.30588486556255v18h-176.30588486556255Z" style="fill: #4c78a8;"></path><path d="M0,101h38.307953655296316v18h-38.307953655296316Z" style="fill: #4c78a8;"></path><path d="M0,121h8.848228246354084v18h-8.848228246354084Z" style="fill: #4c78a8;"></path><path d="M0,141h4.873784977903116v18h-4.873784977903116Z" style="fill: #4c78a8;"></path><path d="M0,161h3.796231031415748v18h-3.796231031415748Z" style="fill: #4c78a8;"></path><path d="M0,181h1.9606746024239112v18h-1.9606746024239112Z" style="fill: #4c78a8;"></path><path d="M0,201h0.9983131678191761v18h-0.9983131678191761Z" style="fill: #4c78a8;"></path><path d="M0,221h0.4151339395667476v18h-0.4151339395667476Z" style="fill: #4c78a8;"></path><path d="M0,241h0.11950277153890997v18h-0.11950277153890997Z" style="fill: #4c78a8;"></path><path d="M0,261h0.03833169846994222v18h-0.03833169846994222Z" style="fill: #4c78a8;"></path><path d="M0,281h0.02834023142956529v18h-0.02834023142956529Z" style="fill: #4c78a8;"></path><path d="M0,301h0.024424804718901665v18h-0.024424804718901665Z" style="fill: #4c78a8;"></path><path d="M0,321h0.004781865674648013v18h-0.004781865674648013Z" style="fill: #4c78a8;"></path><path d="M0,341h0.0030599553285018248v18h-0.0030599553285018248Z" style="fill: #4c78a8;"></path><path d="M0,361h0.001601266946097729v18h-0.001601266946097729Z" style="fill: #4c78a8;"></path><path d="M0,381h0.0012941746550652882v18h-0.0012941746550652882Z" style="fill: #4c78a8;"></path><path d="M0,401h0.0010199851095006084v18h-0.0010199851095006084Z" style="fill: #4c78a8;"></path><path d="M0,421h0.0008006334730488645v18h-0.0008006334730488645Z" style="fill: #4c78a8;"></path><path d="M0,441h0.0006361197457100568v18h-0.0006361197457100568Z" style="fill: #4c78a8;"></path><path d="M0,461h0.0005483790911293594v18h-0.0005483790911293594Z" style="fill: #4c78a8;"></path></g><g class="mark-text role-mark layer_1_marks"><text text-anchor="start" transform="translate(373.7219672805086,13)" style="font-family: sans-serif; font-size: 11px; fill: black;">34M</text><text text-anchor="start" transform="translate(329.68181795321885,33)" style="font-family: sans-serif; font-size: 11px; fill: black;">30M</text><text text-anchor="start" transform="translate(322.0222562247968,53)" style="font-family: sans-serif; font-size: 11px; fill: black;">29M</text><text text-anchor="start" transform="translate(289.30495063049153,73)" style="font-family: sans-serif; font-size: 11px; fill: black;">26M</text><text text-anchor="start" transform="translate(179.30588486556255,93)" style="font-family: sans-serif; font-size: 11px; fill: black;">16M</text><text text-anchor="start" transform="translate(41.307953655296316,113)" style="font-family: sans-serif; font-size: 11px; fill: black;">3.5M</text><text text-anchor="start" transform="translate(11.848228246354084,133)" style="font-family: sans-serif; font-size: 11px; fill: black;">810k</text><text text-anchor="start" transform="translate(7.873784977903116,153)" style="font-family: sans-serif; font-size: 11px; fill: black;">440k</text><text text-anchor="start" transform="translate(6.796231031415748,173)" style="font-family: sans-serif; font-size: 11px; fill: black;">350k</text><text text-anchor="start" transform="translate(4.960674602423911,193)" style="font-family: sans-serif; font-size: 11px; fill: black;">180k</text><text text-anchor="start" transform="translate(3.998313167819176,213)" style="font-family: sans-serif; font-size: 11px; fill: black;">91k</text><text text-anchor="start" transform="translate(3.4151339395667475,233)" style="font-family: sans-serif; font-size: 11px; fill: black;">38k</text><text text-anchor="start" transform="translate(3.11950277153891,253)" style="font-family: sans-serif; font-size: 11px; fill: black;">11k</text><text text-anchor="start" transform="translate(3.038331698469942,273)" style="font-family: sans-serif; font-size: 11px; fill: black;">3.5k</text><text text-anchor="start" transform="translate(3.0283402314295653,293)" style="font-family: sans-serif; font-size: 11px; fill: black;">2.6k</text><text text-anchor="start" transform="translate(3.0244248047189015,313)" style="font-family: sans-serif; font-size: 11px; fill: black;">2.2k</text><text text-anchor="start" transform="translate(3.004781865674648,333)" style="font-family: sans-serif; font-size: 11px; fill: black;">440</text><text text-anchor="start" transform="translate(3.003059955328502,353)" style="font-family: sans-serif; font-size: 11px; fill: black;">280</text><text text-anchor="start" transform="translate(3.0016012669460976,373)" style="font-family: sans-serif; font-size: 11px; fill: black;">150</text><text text-anchor="start" transform="translate(3.001294174655065,393)" style="font-family: sans-serif; font-size: 11px; fill: black;">120</text><text text-anchor="start" transform="translate(3.0010199851095005,413)" style="font-family: sans-serif; font-size: 11px; fill: black;">93</text><text text-anchor="start" transform="translate(3.000800633473049,433)" style="font-family: sans-serif; font-size: 11px; fill: black;">73</text><text text-anchor="start" transform="translate(3.00063611974571,453)" style="font-family: sans-serif; font-size: 11px; fill: black;">58</text><text text-anchor="start" transform="translate(3.0005483790911294,473)" style="font-family: sans-serif; font-size: 11px; fill: black;">50</text></g><g class="mark-group role-axis"><g transform="translate(0.5,480.5)"><path class="background" d="M0,0h0v0h0Z" style="pointer-events: none; fill: none;"></path><g><g class="mark-rule role-axis-tick" style="pointer-events: none;"><line transform="translate(0,0)" x2="0" y2="5" style="fill: none; stroke: #888; stroke-width: 1; opacity: 1;"></line><line transform="translate(31,0)" x2="0" y2="5" style="fill: none; stroke: #888; stroke-width: 1; opacity: 1;"></line><line transform="translate(62,0)" x2="0" y2="5" style="fill: none; stroke: #888; stroke-width: 1; opacity: 1;"></line><line transform="translate(92,0)" x2="0" y2="5" style="fill: none; stroke: #888; stroke-width: 1; opacity: 1;"></line><line transform="translate(123,0)" x2="0" y2="5" style="fill: none; stroke: #888; stroke-width: 1; opacity: 1;"></line><line transform="translate(154,0)" x2="0" y2="5" style="fill: none; stroke: #888; stroke-width: 1; opacity: 1;"></line><line transform="translate(185,0)" x2="0" y2="5" style="fill: none; stroke: #888; stroke-width: 1; opacity: 1;"></line><line transform="translate(215,0)" x2="0" y2="5" style="fill: none; stroke: #888; stroke-width: 1; opacity: 1;"></line><line transform="translate(246,0)" x2="0" y2="5" style="fill: none; stroke: #888; stroke-width: 1; opacity: 1;"></line><line transform="translate(277,0)" x2="0" y2="5" style="fill: none; stroke: #888; stroke-width: 1; opacity: 1;"></line><line transform="translate(308,0)" x2="0" y2="5" style="fill: none; stroke: #888; stroke-width: 1; opacity: 1;"></line><line transform="translate(338,0)" x2="0" y2="5" style="fill: none; stroke: #888; stroke-width: 1; opacity: 1;"></line><line transform="translate(369,0)" x2="0" y2="5" style="fill: none; stroke: #888; stroke-width: 1; opacity: 1;"></line><line transform="translate(400,0)" x2="0" y2="5" style="fill: none; stroke: #888; stroke-width: 1; opacity: 1;"></line></g><g class="mark-text role-axis-label" style="pointer-events: none;"><text text-anchor="start" transform="translate(0,15)" style="font-family: sans-serif; font-size: 10px; fill: #000; opacity: 1;">0%</text><text text-anchor="middle" transform="translate(30.76923076923077,15)" style="font-family: sans-serif; font-size: 10px; fill: #000; opacity: 1;">2%</text><text text-anchor="middle" transform="translate(61.53846153846154,15)" style="font-family: sans-serif; font-size: 10px; fill: #000; opacity: 1;">4%</text><text text-anchor="middle" transform="translate(92.3076923076923,15)" style="font-family: sans-serif; font-size: 10px; fill: #000; opacity: 1;">6%</text><text text-anchor="middle" transform="translate(123.07692307692308,15)" style="font-family: sans-serif; font-size: 10px; fill: #000; opacity: 1;">8%</text><text text-anchor="middle" transform="translate(153.84615384615387,15)" style="font-family: sans-serif; font-size: 10px; fill: #000; opacity: 1;">10%</text><text text-anchor="middle" transform="translate(184.6153846153846,15)" style="font-family: sans-serif; font-size: 10px; fill: #000; opacity: 1;">12%</text><text text-anchor="middle" transform="translate(215.38461538461542,15)" style="font-family: sans-serif; font-size: 10px; fill: #000; opacity: 1;">14%</text><text text-anchor="middle" transform="translate(246.15384615384616,15)" style="font-family: sans-serif; font-size: 10px; fill: #000; opacity: 1;">16%</text><text text-anchor="middle" transform="translate(276.9230769230769,15)" style="font-family: sans-serif; font-size: 10px; fill: #000; opacity: 1;">18%</text><text text-anchor="middle" transform="translate(307.69230769230774,15)" style="font-family: sans-serif; font-size: 10px; fill: #000; opacity: 1;">20%</text><text text-anchor="middle" transform="translate(338.46153846153845,15)" style="font-family: sans-serif; font-size: 10px; fill: #000; opacity: 1;">22%</text><text text-anchor="middle" transform="translate(369.2307692307692,15)" style="font-family: sans-serif; font-size: 10px; fill: #000; opacity: 1;">24%</text><text text-anchor="end" transform="translate(400,15)" style="font-family: sans-serif; font-size: 10px; fill: #000; opacity: 1;">26%</text></g><g class="mark-rule role-axis-domain" style="pointer-events: none;"><line transform="translate(0,0)" x2="400" y2="0" style="fill: none; stroke: #888; stroke-width: 1; opacity: 1;"></line></g><g class="mark-text role-axis-title" style="pointer-events: none;"><text text-anchor="middle" transform="translate(200,30)" style="font-family: sans-serif; font-size: 11px; font-weight: bold; fill: #000; opacity: 1;">Percentage</text></g></g></g></g><g class="mark-group role-axis"><g transform="translate(0.5,0.5)"><path class="background" d="M0,0h0v0h0Z" style="pointer-events: none; fill: none;"></path><g><g class="mark-rule role-axis-tick" style="pointer-events: none;"><line transform="translate(0,9)" x2="-5" y2="0" style="fill: none; stroke: #888; stroke-width: 1; opacity: 1;"></line><line transform="translate(0,29)" x2="-5" y2="0" style="fill: none; stroke: #888; stroke-width: 1; opacity: 1;"></line><line transform="translate(0,49)" x2="-5" y2="0" style="fill: none; stroke: #888; stroke-width: 1; opacity: 1;"></line><line transform="translate(0,69)" x2="-5" y2="0" style="fill: none; stroke: #888; stroke-width: 1; opacity: 1;"></line><line transform="translate(0,89)" x2="-5" y2="0" style="fill: none; stroke: #888; stroke-width: 1; opacity: 1;"></line><line transform="translate(0,109)" x2="-5" y2="0" style="fill: none; stroke: #888; stroke-width: 1; opacity: 1;"></line><line transform="translate(0,129)" x2="-5" y2="0" style="fill: none; stroke: #888; stroke-width: 1; opacity: 1;"></line><line transform="translate(0,149)" x2="-5" y2="0" style="fill: none; stroke: #888; stroke-width: 1; opacity: 1;"></line><line transform="translate(0,169)" x2="-5" y2="0" style="fill: none; stroke: #888; stroke-width: 1; opacity: 1;"></line><line transform="translate(0,189)" x2="-5" y2="0" style="fill: none; stroke: #888; stroke-width: 1; opacity: 1;"></line><line transform="translate(0,209)" x2="-5" y2="0" style="fill: none; stroke: #888; stroke-width: 1; opacity: 1;"></line><line transform="translate(0,229)" x2="-5" y2="0" style="fill: none; stroke: #888; stroke-width: 1; opacity: 1;"></line><line transform="translate(0,249)" x2="-5" y2="0" style="fill: none; stroke: #888; stroke-width: 1; opacity: 1;"></line><line transform="translate(0,269)" x2="-5" y2="0" style="fill: none; stroke: #888; stroke-width: 1; opacity: 1;"></line><line transform="translate(0,289)" x2="-5" y2="0" style="fill: none; stroke: #888; stroke-width: 1; opacity: 1;"></line><line transform="translate(0,309)" x2="-5" y2="0" style="fill: none; stroke: #888; stroke-width: 1; opacity: 1;"></line><line transform="translate(0,329)" x2="-5" y2="0" style="fill: none; stroke: #888; stroke-width: 1; opacity: 1;"></line><line transform="translate(0,349)" x2="-5" y2="0" style="fill: none; stroke: #888; stroke-width: 1; opacity: 1;"></line><line transform="translate(0,369)" x2="-5" y2="0" style="fill: none; stroke: #888; stroke-width: 1; opacity: 1;"></line><line transform="translate(0,389)" x2="-5" y2="0" style="fill: none; stroke: #888; stroke-width: 1; opacity: 1;"></line><line transform="translate(0,409)" x2="-5" y2="0" style="fill: none; stroke: #888; stroke-width: 1; opacity: 1;"></line><line transform="translate(0,429)" x2="-5" y2="0" style="fill: none; stroke: #888; stroke-width: 1; opacity: 1;"></line><line transform="translate(0,449)" x2="-5" y2="0" style="fill: none; stroke: #888; stroke-width: 1; opacity: 1;"></line><line transform="translate(0,469)" x2="-5" y2="0" style="fill: none; stroke: #888; stroke-width: 1; opacity: 1;"></line></g><g class="mark-text role-axis-label" style="pointer-events: none;"><text text-anchor="end" transform="translate(-7,12)" style="font-family: sans-serif; font-size: 10px; fill: #000; opacity: 1;">54 - DOT - HOLLYWOOD</text><text text-anchor="end" transform="translate(-7,32)" style="font-family: sans-serif; font-size: 10px; fill: #000; opacity: 1;">56 - DOT - CENTRAL</text><text text-anchor="end" transform="translate(-7,52)" style="font-family: sans-serif; font-size: 10px; fill: #000; opacity: 1;">51 - DOT - WESTERN</text><text text-anchor="end" transform="translate(-7,72)" style="font-family: sans-serif; font-size: 10px; fill: #000; opacity: 1;">53 - DOT - VALLEY</text><text text-anchor="end" transform="translate(-7,92)" style="font-family: sans-serif; font-size: 10px; fill: #000; opacity: 1;">55 - DOT - SOUTHERN</text><text text-anchor="end" transform="translate(-7,112)" style="font-family: sans-serif; font-size: 10px; fill: #000; opacity: 1;">WESTERN</text><text text-anchor="end" transform="translate(-7,132)" style="font-family: sans-serif; font-size: 10px; fill: #000; opacity: 1;">LAX CURRENT</text><text text-anchor="end" transform="translate(-7,152)" style="font-family: sans-serif; font-size: 10px; fill: #000; opacity: 1;">HOLLYWOOD</text><text text-anchor="end" transform="translate(-7,172)" style="font-family: sans-serif; font-size: 10px; fill: #000; opacity: 1;">57 - HABITUAL VIOLATORS</text><text text-anchor="end" transform="translate(-7,192)" style="font-family: sans-serif; font-size: 10px; fill: #000; opacity: 1;">58 - SPECIAL EVENTS</text><text text-anchor="end" transform="translate(-7,212)" style="font-family: sans-serif; font-size: 10px; fill: #000; opacity: 1;">VALLEY</text><text text-anchor="end" transform="translate(-7,232)" style="font-family: sans-serif; font-size: 10px; fill: #000; opacity: 1;">VN AIRPORT</text><text text-anchor="end" transform="translate(-7,252)" style="font-family: sans-serif; font-size: 10px; fill: #000; opacity: 1;">STREET USE INSPECTORS</text><text text-anchor="end" transform="translate(-7,272)" style="font-family: sans-serif; font-size: 10px; fill: #000; opacity: 1;">BUILDING AND SAFETY</text><text text-anchor="end" transform="translate(-7,292)" style="font-family: sans-serif; font-size: 10px; fill: #000; opacity: 1;">GENERAL SERVICES DEPARTMENT </text><text text-anchor="end" transform="translate(-7,312)" style="font-family: sans-serif; font-size: 10px; fill: #000; opacity: 1;">SOUTHERN</text><text text-anchor="end" transform="translate(-7,332)" style="font-family: sans-serif; font-size: 10px; fill: #000; opacity: 1;">HPV</text><text text-anchor="end" transform="translate(-7,352)" style="font-family: sans-serif; font-size: 10px; fill: #000; opacity: 1;">50 - DOT - HARBOR</text><text text-anchor="end" transform="translate(-7,372)" style="font-family: sans-serif; font-size: 10px; fill: #000; opacity: 1;">BANDIT CAB TASK FORCE</text><text text-anchor="end" transform="translate(-7,392)" style="font-family: sans-serif; font-size: 10px; fill: #000; opacity: 1;">PUBLIC UTILITIES</text><text text-anchor="end" transform="translate(-7,412)" style="font-family: sans-serif; font-size: 10px; fill: #000; opacity: 1;">60 - DOT - RESIDENTIAL TASK FOR…</text><text text-anchor="end" transform="translate(-7,432)" style="font-family: sans-serif; font-size: 10px; fill: #000; opacity: 1;">HOUSING DEPARTMENT</text><text text-anchor="end" transform="translate(-7,452)" style="font-family: sans-serif; font-size: 10px; fill: #000; opacity: 1;">AMTRAK POLICE DEPT</text><text text-anchor="end" transform="translate(-7,472)" style="font-family: sans-serif; font-size: 10px; fill: #000; opacity: 1;">AIRPORT BACK</text></g><g class="mark-rule role-axis-domain" style="pointer-events: none;"><line transform="translate(0,0)" x2="0" y2="480" style="fill: none; stroke: #888; stroke-width: 1; opacity: 1;"></line></g><g class="mark-text role-axis-title" style="pointer-events: none;"><text text-anchor="middle" transform="translate(-188.6171875,240) rotate(-90) translate(0,-2)" style="font-family: sans-serif; font-size: 11px; font-weight: bold; fill: #000; opacity: 1;">Agency</text></g></g></g></g></g></g></g></g></svg>